<svg xmlns="http://www.w3.org/2000/svg" viewBox="0 0 695 695" width="1024" height="1024">
	<style>
		tspan { white-space:pre }
		.shp0 { fill: #eac71c } 
		.shp1 { fill: #ede21b } 
		.shp2 { fill: #ef8229 } 
		.shp3 { fill: #f29f26 } 
		.shp4 { fill: #9bf57d } 
		.shp5 { fill: #0096dc } 
		.shp6 { fill: #00c3ff } 
		.shp7 { fill: #96e6ff } 
		.shp8 { fill: #00d2ff } 
		.shp9 { fill: #7dc86e } 
	</style>
	<g id="sun">
		<path id="Layer" class="shp0" d="M371.29 391.53C371.88 390.92 372.47 390.31 373.05 389.7C373.42 389.31 373.78 388.91 374.15 388.52C374.7 387.92 375.25 387.33 375.79 386.73C376.16 386.31 376.53 385.89 376.9 385.47C377.12 385.22 377.35 384.96 377.57 384.71C377.79 384.45 378.01 384.2 378.23 383.94C378.46 383.68 378.68 383.42 378.89 383.16C379.11 382.9 379.33 382.65 379.55 382.38C380.05 381.78 380.55 381.18 381.05 380.57C381.41 380.13 381.76 379.69 382.12 379.24C382.61 378.62 383.09 377.99 383.58 377.37C383.92 376.92 384.26 376.48 384.6 376.04C385.09 375.39 385.57 374.73 386.06 374.06C386.37 373.64 386.69 373.21 386.99 372.78C387.51 372.06 388.01 371.33 388.52 370.6C388.78 370.22 389.05 369.84 389.31 369.46C389.96 368.5 390.6 367.53 391.23 366.55C391.33 366.39 391.44 366.24 391.54 366.08C391.72 365.8 391.9 365.51 392.08 365.23C392.26 364.94 392.44 364.66 392.62 364.37C392.8 364.08 392.98 363.8 393.15 363.51C393.33 363.22 393.51 362.93 393.68 362.64C393.9 362.29 394.1 361.93 394.31 361.57C394.79 360.77 395.27 359.96 395.74 359.15C396 358.69 396.25 358.23 396.51 357.77C396.91 357.05 397.31 356.33 397.71 355.6C397.98 355.1 398.24 354.59 398.5 354.09C398.87 353.39 399.23 352.69 399.59 351.99C399.86 351.47 400.12 350.94 400.37 350.41C400.53 350.11 400.68 349.8 400.83 349.49C400.98 349.18 401.13 348.87 401.27 348.56C401.42 348.25 401.57 347.95 401.71 347.63C401.86 347.32 402 347.01 402.14 346.7C402.29 346.39 402.43 346.08 402.57 345.77C402.71 345.46 402.85 345.14 402.99 344.83C403.13 344.52 403.27 344.21 403.41 343.89C403.54 343.58 403.68 343.27 403.81 342.95C403.89 342.77 403.97 342.59 404.04 342.41C404.12 342.24 404.2 342.06 404.27 341.88C404.35 341.7 404.42 341.52 404.5 341.34C404.57 341.16 404.65 340.98 404.72 340.8C404.94 340.25 405.17 339.71 405.39 339.16C405.68 338.42 405.97 337.67 406.26 336.92C406.46 336.39 406.67 335.86 406.87 335.33C407.16 334.53 407.44 333.73 407.72 332.93C407.9 332.44 408.08 331.95 408.24 331.45C408.56 330.52 408.86 329.58 409.17 328.64C409.28 328.27 409.41 327.9 409.53 327.53C409.94 326.21 410.33 324.9 410.71 323.57C410.79 323.27 410.87 322.96 410.95 322.66C411.24 321.63 411.52 320.6 411.78 319.56C411.91 319.07 412.02 318.57 412.14 318.08C412.35 317.22 412.56 316.37 412.76 315.51C412.88 314.96 413 314.4 413.12 313.84C413.29 313.03 413.47 312.23 413.63 311.42C413.75 310.83 413.86 310.25 413.97 309.66C414.03 309.31 414.1 308.97 414.16 308.62C414.23 308.27 414.29 307.92 414.35 307.57C414.41 307.22 414.47 306.88 414.53 306.53C414.59 306.18 414.64 305.83 414.7 305.48C414.79 304.93 414.87 304.38 414.96 303.83C415.04 303.28 415.12 302.73 415.2 302.18C415.27 301.63 415.35 301.07 415.42 300.52C415.49 299.97 415.56 299.42 415.62 298.86C415.69 298.26 415.76 297.66 415.83 297.05C415.92 296.23 415.99 295.4 416.07 294.57C416.12 293.98 416.18 293.39 416.23 292.8C416.3 291.93 416.35 291.07 416.41 290.2C416.44 289.64 416.48 289.08 416.52 288.51C416.57 287.56 416.6 286.6 416.64 285.63C416.65 285.16 416.68 284.68 416.69 284.21C416.73 282.77 416.75 281.32 416.75 279.87C416.75 264.7 414.64 250.01 410.69 236.1C400.99 201.96 380.23 172.47 352.53 151.75C325.85 131.81 292.74 119.99 256.87 119.99L256.87 119.99C221 119.99 187.89 131.81 161.21 151.75C133.51 172.47 112.75 201.96 103.05 236.1C99.1 250.01 96.99 264.7 96.99 279.87C96.99 281.32 97.01 282.76 97.05 284.21C97.06 284.68 97.09 285.16 97.1 285.63C97.14 286.6 97.17 287.56 97.22 288.51C97.25 289.08 97.29 289.64 97.33 290.2C97.39 291.07 97.44 291.93 97.51 292.8C97.56 293.39 97.62 293.98 97.67 294.57C97.75 295.4 97.82 296.23 97.91 297.05C97.98 297.66 98.05 298.26 98.12 298.86C98.16 299.22 98.2 299.57 98.25 299.92C98.29 300.28 98.34 300.63 98.38 300.98C98.43 301.33 98.48 301.69 98.53 302.04C98.57 302.39 98.62 302.74 98.68 303.09C98.73 303.44 98.78 303.79 98.83 304.14C98.89 304.49 98.94 304.84 99 305.19C99.05 305.54 99.11 305.89 99.16 306.24C99.22 306.58 99.28 306.93 99.34 307.28C99.48 308.08 99.62 308.87 99.77 309.66C99.88 310.25 99.99 310.83 100.11 311.42C100.27 312.23 100.45 313.04 100.62 313.84C100.74 314.4 100.86 314.96 100.98 315.51C101.18 316.37 101.39 317.22 101.6 318.08C101.72 318.57 101.83 319.07 101.96 319.56C102.22 320.6 102.5 321.63 102.79 322.66C102.87 322.96 102.95 323.27 103.04 323.57C103.41 324.9 103.8 326.21 104.21 327.53C104.33 327.9 104.46 328.27 104.57 328.64C104.87 329.58 105.18 330.52 105.5 331.45C105.67 331.95 105.84 332.44 106.02 332.93C106.3 333.73 106.58 334.53 106.87 335.33C107.07 335.86 107.28 336.39 107.48 336.92C107.6 337.25 107.73 337.57 107.85 337.9C107.98 338.22 108.11 338.54 108.23 338.87C108.36 339.19 108.49 339.51 108.62 339.83C108.75 340.15 108.89 340.48 109.02 340.8C109.22 341.29 109.43 341.79 109.64 342.28C109.85 342.78 110.06 343.27 110.28 343.76C110.49 344.26 110.71 344.75 110.93 345.24C111.15 345.73 111.37 346.21 111.6 346.7C111.85 347.24 112.1 347.78 112.35 348.32C112.68 349.02 113.02 349.72 113.37 350.41C113.62 350.94 113.88 351.46 114.15 351.99C114.5 352.69 114.87 353.39 115.24 354.09C115.5 354.59 115.76 355.1 116.03 355.6C116.43 356.33 116.83 357.05 117.23 357.77C117.49 358.23 117.74 358.69 118 359.15C118.47 359.96 118.95 360.77 119.43 361.57C119.64 361.93 119.84 362.29 120.06 362.64C120.76 363.8 121.47 364.95 122.2 366.08C122.3 366.24 122.41 366.39 122.51 366.55C123.14 367.53 123.78 368.5 124.43 369.46C124.69 369.84 124.96 370.22 125.22 370.6C125.35 370.79 125.47 370.97 125.6 371.15C125.73 371.33 125.85 371.51 125.98 371.69C126.11 371.88 126.23 372.06 126.36 372.24C126.49 372.42 126.62 372.6 126.74 372.78C127.05 373.21 127.37 373.64 127.68 374.06C128.17 374.72 128.65 375.39 129.14 376.04C129.48 376.48 129.82 376.92 130.16 377.37C130.64 377.99 131.13 378.62 131.62 379.24C131.98 379.69 132.33 380.13 132.69 380.57C132.91 380.83 133.12 381.09 133.33 381.35C133.55 381.62 133.76 381.88 133.98 382.14C134.2 382.4 134.41 382.65 134.63 382.91C134.85 383.17 135.07 383.43 135.29 383.68C135.8 384.29 136.32 384.88 136.84 385.47C137.21 385.89 137.58 386.31 137.95 386.73C138.49 387.33 139.04 387.92 139.59 388.52C139.95 388.91 140.32 389.31 140.69 389.7C141.27 390.31 141.86 390.92 142.45 391.53C142.8 391.88 143.14 392.24 143.5 392.6C144.16 393.27 144.84 393.93 145.52 394.59C145.8 394.86 146.08 395.14 146.37 395.42C146.61 395.65 146.86 395.88 147.1 396.11C147.34 396.34 147.59 396.57 147.83 396.8C148.08 397.03 148.33 397.26 148.57 397.49C148.82 397.72 149.07 397.94 149.32 398.17C150.33 399.09 151.35 400 152.39 400.89C152.41 400.91 152.44 400.94 152.46 400.96L152.49 400.98C154.28 402.52 156.11 404.03 157.97 405.49C159.83 406.96 161.72 408.38 163.64 409.76C165.56 411.15 167.52 412.48 169.5 413.78C171.48 415.07 173.49 416.32 175.53 417.53L175.63 417.6C175.83 417.72 176.04 417.83 176.24 417.95C177.32 418.58 178.4 419.2 179.49 419.8C179.78 419.96 180.06 420.13 180.35 420.28C181.72 421.03 183.09 421.75 184.48 422.46C184.8 422.62 185.13 422.78 185.46 422.94C185.84 423.13 186.22 423.32 186.6 423.51C186.98 423.7 187.36 423.88 187.74 424.06C188.12 424.25 188.5 424.43 188.89 424.61C189.27 424.79 189.65 424.97 190.04 425.15C190.33 425.28 190.62 425.42 190.92 425.55C191.21 425.68 191.51 425.82 191.8 425.95C192.1 426.08 192.39 426.21 192.69 426.34C192.98 426.47 193.28 426.6 193.58 426.73C193.84 426.84 194.11 426.96 194.37 427.07C195.81 427.68 197.27 428.28 198.73 428.85C199.09 428.99 199.46 429.13 199.83 429.26C200.96 429.7 202.1 430.12 203.25 430.53C203.69 430.68 204.14 430.84 204.58 431C205.86 431.44 207.13 431.86 208.42 432.27C208.65 432.35 208.88 432.43 209.12 432.5C210.63 432.97 212.15 433.42 213.67 433.84C214.08 433.96 214.48 434.06 214.89 434.17C216.05 434.49 217.23 434.8 218.4 435.09C218.87 435.2 219.33 435.32 219.8 435.43C221.17 435.75 222.56 436.06 223.95 436.35C224.13 436.39 224.32 436.44 224.5 436.47C226.07 436.8 227.65 437.09 229.23 437.37C229.67 437.44 230.11 437.51 230.55 437.58C231.75 437.78 232.95 437.97 234.16 438.14C234.66 438.21 235.15 438.28 235.65 438.35C236.15 438.41 236.64 438.48 237.14 438.54C237.64 438.6 238.13 438.66 238.63 438.72C239.13 438.78 239.63 438.83 240.12 438.88C240.23 438.89 240.34 438.91 240.44 438.92C242.07 439.09 243.7 439.22 245.33 439.34C245.8 439.37 246.27 439.4 246.74 439.42C247.96 439.5 249.2 439.56 250.43 439.61C250.92 439.63 251.4 439.65 251.88 439.67C253.54 439.72 255.2 439.75 256.87 439.75L256.87 439.75C258.53 439.75 260.19 439.72 261.85 439.67C262.33 439.65 262.81 439.63 263.3 439.61C264.53 439.56 265.77 439.5 267 439.42C267.47 439.4 267.93 439.37 268.4 439.34C270.04 439.22 271.67 439.09 273.29 438.92C273.4 438.91 273.5 438.89 273.61 438.88C275.13 438.72 276.64 438.54 278.14 438.34C278.62 438.28 279.1 438.21 279.57 438.14C280.78 437.97 281.99 437.78 283.18 437.58C283.62 437.51 284.06 437.44 284.5 437.37C286.08 437.09 287.66 436.8 289.23 436.47C289.42 436.44 289.6 436.39 289.79 436.35C291.18 436.06 292.56 435.75 293.94 435.43C294.4 435.31 294.87 435.2 295.33 435.09C296.51 434.8 297.68 434.49 298.85 434.17C299.25 434.06 299.66 433.96 300.06 433.84C300.44 433.74 300.83 433.63 301.21 433.52C301.59 433.41 301.97 433.3 302.35 433.19C302.73 433.08 303.1 432.96 303.48 432.85C303.86 432.73 304.24 432.62 304.62 432.5C304.85 432.43 305.08 432.35 305.32 432.27C305.75 432.13 306.18 431.99 306.61 431.85C307.05 431.71 307.48 431.57 307.91 431.42C308.34 431.28 308.77 431.13 309.2 430.98C309.63 430.83 310.06 430.68 310.49 430.53C311.63 430.12 312.77 429.7 313.91 429.26C314.27 429.12 314.64 428.99 315.01 428.85C315.37 428.7 315.74 428.56 316.1 428.42C316.47 428.27 316.83 428.12 317.19 427.98C317.55 427.83 317.92 427.68 318.28 427.53C318.64 427.38 319 427.23 319.36 427.07C319.63 426.96 319.89 426.84 320.16 426.72C320.85 426.43 321.53 426.13 322.21 425.82C322.89 425.52 323.57 425.21 324.25 424.89C324.92 424.58 325.6 424.26 326.27 423.93C326.94 423.61 327.61 423.28 328.28 422.94C328.6 422.78 328.93 422.62 329.26 422.46C329.6 422.28 329.95 422.1 330.29 421.92C330.64 421.75 330.98 421.57 331.33 421.38C331.67 421.2 332.01 421.02 332.36 420.84C332.7 420.65 333.04 420.47 333.38 420.28C333.67 420.13 333.96 419.96 334.25 419.8C335.34 419.2 336.42 418.58 337.49 417.95C337.7 417.83 337.9 417.72 338.1 417.6L338.21 417.53C340.25 416.32 342.26 415.07 344.24 413.78C346.22 412.48 348.17 411.14 350.1 409.76C352.02 408.38 353.91 406.96 355.77 405.49C357.63 404.03 359.45 402.52 361.25 400.98L361.27 400.96L361.35 400.89C361.61 400.67 361.86 400.44 362.12 400.22C362.38 399.99 362.64 399.77 362.89 399.54C363.15 399.31 363.4 399.09 363.66 398.86C363.91 398.63 364.17 398.4 364.42 398.17L364.43 398.16C365.42 397.26 366.4 396.34 367.36 395.42C367.65 395.14 367.93 394.86 368.22 394.58C368.39 394.42 368.56 394.26 368.73 394.09C368.89 393.93 369.06 393.76 369.23 393.6C369.4 393.43 369.57 393.26 369.74 393.1C369.9 392.93 370.07 392.76 370.24 392.6C370.59 392.24 370.94 391.88 371.29 391.53L371.29 391.53Z" />
		<path id="Layer" class="shp1" d="M352.53 151.75C325.85 131.8 292.74 119.99 256.87 119.99L256.87 119.99C247.3 119.99 237.93 120.84 228.82 122.45C193.69 154.54 171.65 200.72 171.65 252.05C171.65 340.53 237.14 413.7 322.29 425.78C322.76 425.56 323.23 425.36 323.7 425.15C324.08 424.97 324.47 424.79 324.85 424.61C325.23 424.43 325.62 424.25 326 424.06C326.38 423.88 326.76 423.69 327.14 423.51C327.52 423.32 327.9 423.13 328.28 422.94C328.61 422.78 328.93 422.62 329.26 422.46C329.61 422.28 329.95 422.1 330.3 421.92C330.64 421.75 330.99 421.57 331.33 421.38C331.67 421.2 332.02 421.02 332.36 420.84C332.7 420.65 333.04 420.47 333.39 420.28C333.68 420.13 333.96 419.96 334.25 419.8C335.34 419.2 336.42 418.58 337.5 417.95C337.7 417.83 337.91 417.72 338.11 417.6L338.21 417.53C340.25 416.32 342.26 415.07 344.24 413.78C346.22 412.48 348.18 411.14 350.1 409.76C352.02 408.38 353.91 406.96 355.77 405.49C357.63 404.03 359.46 402.52 361.25 400.98L361.27 400.96L361.35 400.89C361.61 400.67 361.87 400.44 362.12 400.22C362.38 399.99 362.64 399.77 362.89 399.54C363.15 399.31 363.41 399.09 363.66 398.86C363.91 398.63 364.17 398.4 364.42 398.17L364.43 398.16C365.42 397.26 366.4 396.34 367.37 395.42C367.65 395.14 367.93 394.86 368.22 394.58C368.39 394.42 368.56 394.26 368.73 394.09C368.9 393.93 369.07 393.76 369.23 393.6C369.4 393.43 369.57 393.26 369.74 393.1C369.91 392.93 370.07 392.76 370.24 392.6C370.59 392.24 370.94 391.88 371.28 391.53C371.88 390.92 372.47 390.31 373.05 389.7C373.42 389.31 373.78 388.91 374.15 388.52C374.7 387.92 375.24 387.33 375.78 386.73C376.16 386.31 376.53 385.89 376.9 385.47C377.12 385.22 377.35 384.96 377.57 384.71C377.79 384.45 378.01 384.19 378.23 383.94C378.45 383.68 378.67 383.42 378.89 383.16C379.11 382.9 379.33 382.64 379.55 382.38C380.05 381.78 380.55 381.18 381.05 380.57C381.4 380.13 381.76 379.68 382.12 379.24C382.61 378.62 383.09 377.99 383.58 377.36C383.92 376.92 384.26 376.48 384.6 376.04C385.09 375.39 385.57 374.72 386.06 374.06C386.37 373.64 386.68 373.21 386.99 372.78C387.51 372.06 388.01 371.33 388.52 370.6C388.78 370.22 389.05 369.84 389.31 369.46C389.96 368.5 390.6 367.53 391.23 366.55C391.33 366.39 391.44 366.24 391.54 366.08C391.72 365.8 391.9 365.51 392.08 365.23C392.26 364.94 392.44 364.65 392.62 364.37C392.8 364.08 392.98 363.79 393.15 363.51C393.33 363.22 393.51 362.93 393.68 362.64C393.89 362.29 394.1 361.93 394.31 361.57C394.79 360.77 395.27 359.96 395.74 359.15C396 358.69 396.25 358.23 396.51 357.77C396.91 357.05 397.31 356.33 397.71 355.6C397.98 355.1 398.24 354.59 398.5 354.09C398.87 353.39 399.23 352.69 399.59 351.99C399.86 351.46 400.11 350.94 400.37 350.41C400.53 350.11 400.68 349.8 400.83 349.49C400.98 349.18 401.12 348.87 401.27 348.56C401.42 348.25 401.57 347.94 401.71 347.63C401.86 347.32 402 347.01 402.14 346.7C402.29 346.39 402.43 346.08 402.57 345.77C402.71 345.46 402.85 345.14 402.99 344.83C403.13 344.52 403.27 344.21 403.4 343.89C403.54 343.58 403.68 343.27 403.81 342.95C403.89 342.77 403.97 342.59 404.04 342.41C404.12 342.23 404.19 342.05 404.27 341.87C404.35 341.7 404.42 341.52 404.5 341.34C404.57 341.16 404.64 340.98 404.72 340.79C404.94 340.25 405.17 339.71 405.39 339.16C405.68 338.42 405.97 337.67 406.26 336.92C406.46 336.39 406.67 335.86 406.86 335.33C407.16 334.53 407.44 333.73 407.72 332.93C407.89 332.43 408.07 331.94 408.24 331.45C408.56 330.52 408.86 329.58 409.17 328.64C409.28 328.26 409.41 327.9 409.53 327.53C409.94 326.21 410.33 324.9 410.7 323.57C410.79 323.27 410.87 322.96 410.95 322.66C411.24 321.63 411.52 320.6 411.78 319.56C411.91 319.07 412.02 318.57 412.14 318.07C412.35 317.22 412.56 316.37 412.75 315.51C412.88 314.95 413 314.4 413.12 313.84C413.29 313.03 413.47 312.23 413.63 311.42C413.75 310.83 413.86 310.25 413.97 309.66C414.03 309.31 414.1 308.96 414.16 308.62C414.23 308.27 414.29 307.92 414.35 307.57C414.41 307.22 414.47 306.88 414.53 306.53C414.59 306.18 414.64 305.83 414.7 305.48C414.79 304.93 414.87 304.38 414.96 303.83C415.04 303.28 415.12 302.73 415.2 302.18C415.27 301.63 415.35 301.07 415.42 300.52C415.49 299.97 415.56 299.42 415.62 298.86C415.69 298.26 415.76 297.66 415.83 297.05C415.91 296.23 415.99 295.4 416.07 294.57C416.12 293.98 416.18 293.39 416.23 292.79C416.3 291.93 416.35 291.07 416.41 290.2C416.44 289.64 416.48 289.08 416.52 288.51C416.57 287.56 416.6 286.59 416.63 285.63C416.65 285.16 416.68 284.68 416.69 284.2C416.73 282.76 416.75 281.32 416.75 279.87C416.75 264.69 414.63 250.01 410.68 236.1C400.99 201.96 380.23 172.47 352.53 151.75L352.53 151.75Z" />
		<path id="Layer" class="shp2" d="M377.54 275.72C377.52 274.95 377.49 274.18 377.44 273.41C377.4 272.64 377.36 271.87 377.3 271.11C377.25 270.34 377.18 269.57 377.11 268.81C377.04 268.04 376.97 267.27 376.88 266.51C376.85 266.17 376.81 265.84 376.77 265.51C376.68 264.75 376.58 264 376.48 263.25C376.38 262.5 376.27 261.75 376.15 261.01C376.03 260.26 375.91 259.51 375.78 258.77C375.64 258.02 375.51 257.28 375.36 256.53C375.22 255.8 375.07 255.06 374.91 254.33C374.75 253.6 374.59 252.87 374.41 252.14C374.24 251.41 374.07 250.69 373.88 249.96C373.7 249.23 373.5 248.51 373.3 247.79C372.91 246.36 372.5 244.95 372.05 243.54C371.61 242.13 371.14 240.73 370.64 239.33C370.15 237.94 369.62 236.56 369.08 235.19C368.53 233.81 367.96 232.45 367.36 231.1C366.77 229.76 366.15 228.44 365.51 227.12C364.87 225.81 364.21 224.51 363.52 223.22C362.84 221.92 362.13 220.65 361.39 219.38C360.66 218.12 359.9 216.87 359.12 215.63C357.68 213.33 356.15 211.08 354.55 208.89C352.96 206.69 351.28 204.55 349.54 202.46C347.8 200.38 345.99 198.35 344.11 196.39C342.23 194.43 340.29 192.53 338.28 190.7L338.27 190.68L338.18 190.6C337.86 190.31 337.53 190.02 337.2 189.72C336.83 189.39 336.46 189.06 336.09 188.74C335.74 188.44 335.39 188.14 335.04 187.85C334.68 187.54 334.31 187.22 333.94 186.92C333.58 186.62 333.22 186.33 332.86 186.04C332.49 185.74 332.13 185.44 331.76 185.14C331.39 184.85 331.02 184.57 330.65 184.28C330.28 183.99 329.9 183.71 329.53 183.42C329.15 183.14 328.77 182.86 328.4 182.58C328.3 182.51 328.21 182.44 328.11 182.37C328.02 182.3 327.92 182.24 327.83 182.17C327.73 182.1 327.64 182.03 327.54 181.96C327.45 181.89 327.35 181.82 327.26 181.75C326.88 181.48 326.49 181.21 326.1 180.94C325.91 180.8 325.72 180.67 325.53 180.53C325.33 180.4 325.14 180.27 324.95 180.13C324.75 180 324.56 179.87 324.37 179.74C324.17 179.61 323.98 179.48 323.78 179.35C323.68 179.28 323.58 179.22 323.48 179.15C323.38 179.08 323.29 179.02 323.19 178.95C323.09 178.89 322.99 178.82 322.89 178.76C322.79 178.69 322.69 178.63 322.59 178.56C322.39 178.44 322.19 178.31 322 178.18C321.8 178.05 321.6 177.93 321.4 177.8C321.2 177.67 321 177.55 320.8 177.42C320.6 177.3 320.4 177.18 320.2 177.05C320 176.93 319.8 176.8 319.6 176.68C319.39 176.56 319.19 176.43 318.99 176.31C318.79 176.19 318.58 176.07 318.38 175.95C318.18 175.83 317.97 175.71 317.77 175.59C317.37 175.36 316.97 175.12 316.57 174.89C316.15 174.65 315.72 174.42 315.3 174.18C314.9 173.96 314.49 173.74 314.09 173.52C313.66 173.28 313.22 173.06 312.78 172.83C312.38 172.62 311.98 172.41 311.58 172.2C311.13 171.97 310.67 171.75 310.21 171.52C309.82 171.33 309.43 171.13 309.03 170.94C308.54 170.71 308.05 170.48 307.56 170.25C307.19 170.08 306.82 169.91 306.45 169.74C305.83 169.46 305.21 169.19 304.58 168.92C304.34 168.82 304.09 168.7 303.84 168.6C302.98 168.23 302.1 167.88 301.23 167.53C300.89 167.4 300.55 167.27 300.21 167.14C299.65 166.93 299.1 166.71 298.54 166.51C298.16 166.37 297.78 166.24 297.4 166.1C297.27 166.05 297.14 166.01 297.01 165.96C296.88 165.91 296.75 165.87 296.62 165.82C296.49 165.78 296.36 165.73 296.23 165.69C296.1 165.64 295.97 165.6 295.84 165.55C295.43 165.41 295.03 165.28 294.62 165.15C294.11 164.98 293.61 164.82 293.1 164.66C292.68 164.52 292.26 164.4 291.84 164.27C291.34 164.12 290.84 163.97 290.33 163.82C289.91 163.7 289.48 163.58 289.05 163.46C288.81 163.4 288.58 163.33 288.35 163.27C288.11 163.21 287.88 163.14 287.64 163.08C287.41 163.02 287.17 162.96 286.94 162.9C286.7 162.84 286.47 162.78 286.23 162.72C285.87 162.63 285.51 162.54 285.14 162.46C284.78 162.37 284.42 162.28 284.05 162.2C283.69 162.12 283.32 162.03 282.96 161.95C282.59 161.87 282.23 161.8 281.86 161.72C281.62 161.67 281.38 161.62 281.14 161.57C280.9 161.52 280.67 161.47 280.43 161.43C280.19 161.38 279.95 161.33 279.71 161.29C279.47 161.24 279.23 161.2 278.99 161.15C278.87 161.13 278.76 161.11 278.65 161.09C278.54 161.07 278.43 161.05 278.32 161.03C278.21 161.01 278.1 160.99 277.98 160.97C277.87 160.95 277.76 160.93 277.65 160.91C277.41 160.87 277.17 160.83 276.92 160.79C276.68 160.75 276.44 160.71 276.2 160.67C275.96 160.63 275.71 160.59 275.47 160.55C275.23 160.52 274.99 160.48 274.74 160.44C274.21 160.36 273.67 160.29 273.14 160.22C272.7 160.16 272.26 160.1 271.82 160.04C271.27 159.98 270.72 159.92 270.18 159.86C269.74 159.81 269.3 159.76 268.86 159.72C268.3 159.66 267.74 159.61 267.18 159.57C266.75 159.53 266.32 159.49 265.9 159.46C265.3 159.41 264.71 159.38 264.12 159.35C263.71 159.32 263.31 159.29 262.91 159.27C262.74 159.27 262.58 159.26 262.41 159.25C262.24 159.24 262.08 159.24 261.91 159.23C261.75 159.23 261.58 159.22 261.42 159.21C261.25 159.21 261.08 159.2 260.92 159.2C260.58 159.19 260.24 159.17 259.9 159.16C258.9 159.14 257.9 159.12 256.89 159.12L256.85 159.12C255.85 159.12 254.85 159.14 253.84 159.16C253.5 159.17 253.16 159.19 252.82 159.2C252.16 159.22 251.5 159.24 250.83 159.27C250.43 159.29 250.03 159.32 249.62 159.35C249.03 159.38 248.44 159.41 247.85 159.46C247.42 159.49 246.99 159.53 246.56 159.57C246 159.61 245.44 159.66 244.88 159.72C244.44 159.76 244 159.81 243.56 159.86C243.02 159.92 242.47 159.98 241.92 160.04C241.48 160.1 241.04 160.16 240.6 160.22C240.36 160.25 240.11 160.28 239.87 160.32C239.62 160.35 239.38 160.39 239.13 160.42C238.89 160.46 238.64 160.5 238.4 160.53C238.15 160.57 237.91 160.61 237.66 160.65C237.42 160.69 237.18 160.73 236.93 160.77C236.69 160.81 236.45 160.85 236.21 160.89C235.97 160.93 235.72 160.97 235.48 161.02C235.24 161.06 235 161.11 234.76 161.15C234.52 161.2 234.28 161.24 234.04 161.29C233.8 161.33 233.56 161.38 233.32 161.43C233.08 161.48 232.84 161.52 232.6 161.57C232.36 161.62 232.12 161.67 231.88 161.72C231.64 161.77 231.4 161.82 231.17 161.87C230.93 161.92 230.69 161.98 230.45 162.03C230.21 162.08 229.98 162.14 229.74 162.19C229.5 162.24 229.26 162.3 229.03 162.35C228.79 162.41 228.56 162.47 228.32 162.52C228.08 162.58 227.85 162.64 227.61 162.7C227.38 162.76 227.14 162.82 226.91 162.87C226.67 162.93 226.44 162.99 226.2 163.06C225.7 163.19 225.2 163.33 224.69 163.46C224.26 163.58 223.83 163.7 223.41 163.82C222.9 163.97 222.4 164.12 221.9 164.27C221.48 164.4 221.06 164.52 220.64 164.66C220.13 164.81 219.63 164.98 219.12 165.15C218.71 165.28 218.31 165.41 217.9 165.55C217.38 165.73 216.86 165.91 216.34 166.1C215.96 166.24 215.57 166.37 215.19 166.51C214.64 166.71 214.08 166.93 213.53 167.14C213.19 167.27 212.85 167.4 212.51 167.53C211.63 167.88 210.76 168.23 209.9 168.6C209.65 168.7 209.4 168.81 209.16 168.92C208.53 169.19 207.9 169.46 207.28 169.74C206.91 169.91 206.55 170.08 206.18 170.25C205.69 170.48 205.19 170.71 204.71 170.94C204.31 171.13 203.92 171.33 203.52 171.52C203.07 171.75 202.61 171.97 202.16 172.2C201.76 172.41 201.36 172.62 200.95 172.83C200.52 173.06 200.08 173.28 199.65 173.52C199.25 173.74 198.84 173.96 198.44 174.18C198.02 174.42 197.59 174.65 197.17 174.89C196.77 175.12 196.37 175.36 195.97 175.59C195.77 175.71 195.56 175.83 195.36 175.95C195.16 176.07 194.95 176.19 194.75 176.31C194.55 176.43 194.34 176.56 194.14 176.68C193.94 176.8 193.74 176.93 193.54 177.05C193.34 177.18 193.14 177.3 192.94 177.42C192.74 177.55 192.54 177.67 192.34 177.8C192.14 177.93 191.94 178.05 191.74 178.18C191.54 178.31 191.35 178.44 191.15 178.56C190.95 178.69 190.75 178.82 190.56 178.95C190.36 179.08 190.16 179.21 189.97 179.34C189.77 179.47 189.57 179.61 189.38 179.74C189.18 179.87 188.99 180 188.79 180.13C188.6 180.27 188.41 180.4 188.21 180.53C188.02 180.67 187.83 180.8 187.63 180.94C187.44 181.07 187.25 181.21 187.06 181.34C186.86 181.48 186.67 181.62 186.48 181.75C186.1 182.03 185.72 182.3 185.34 182.58C185.16 182.72 184.97 182.86 184.78 183C184.59 183.14 184.4 183.28 184.21 183.42C184.02 183.57 183.84 183.71 183.65 183.85C183.46 183.99 183.28 184.14 183.09 184.28C182.72 184.57 182.35 184.85 181.98 185.14C181.61 185.44 181.24 185.74 180.87 186.04C180.51 186.33 180.15 186.62 179.8 186.91C179.43 187.22 179.06 187.54 178.69 187.85C178.35 188.14 178 188.44 177.65 188.74C177.28 189.06 176.91 189.39 176.54 189.72C176.21 190.02 175.88 190.31 175.56 190.6L175.47 190.68L175.45 190.7C173.45 192.53 171.51 194.43 169.63 196.39C167.75 198.35 165.94 200.38 164.2 202.46C162.46 204.55 160.78 206.69 159.19 208.88C157.59 211.08 156.06 213.33 154.62 215.63C154.45 215.89 154.29 216.15 154.12 216.42C153.74 217.04 153.36 217.66 152.99 218.29C152.62 218.91 152.25 219.54 151.89 220.18C151.53 220.81 151.17 221.45 150.82 222.08C150.48 222.72 150.13 223.37 149.79 224.01C149.49 224.59 149.19 225.18 148.9 225.76C148.6 226.35 148.31 226.94 148.03 227.53C147.74 228.12 147.46 228.71 147.19 229.31C146.91 229.9 146.64 230.5 146.38 231.1C146.25 231.38 146.13 231.66 146.01 231.95C145.42 233.31 144.86 234.68 144.32 236.06C143.78 237.44 143.27 238.82 142.79 240.22C142.3 241.62 141.84 243.03 141.4 244.45C140.97 245.86 140.56 247.28 140.18 248.72C140.01 249.36 139.84 250.01 139.68 250.66C139.52 251.31 139.37 251.96 139.22 252.61C139.06 253.26 138.92 253.91 138.78 254.57C138.64 255.22 138.51 255.88 138.38 256.53C138.32 256.85 138.25 257.17 138.19 257.5C137.93 258.91 137.69 260.34 137.47 261.76C137.26 263.19 137.07 264.62 136.9 266.06C136.74 267.49 136.6 268.93 136.49 270.37C136.38 271.8 136.29 273.24 136.23 274.69C136.21 275.12 136.2 275.55 136.18 275.98C136.17 276.41 136.16 276.85 136.15 277.28C136.14 277.71 136.13 278.14 136.12 278.57C136.12 279 136.12 279.44 136.11 279.87C136.11 281.41 136.14 282.95 136.2 284.48C136.26 286.02 136.35 287.56 136.46 289.09C136.58 290.62 136.72 292.16 136.9 293.68C137.07 295.21 137.28 296.74 137.51 298.26C137.7 299.5 137.9 300.73 138.13 301.96C138.36 303.19 138.61 304.42 138.87 305.64C139.14 306.87 139.42 308.08 139.73 309.3C140.03 310.51 140.35 311.72 140.7 312.93C155.07 363.55 201.64 400.62 256.87 400.62L256.87 400.62C312.09 400.62 358.66 363.55 373.04 312.93C373.52 311.23 373.96 309.53 374.37 307.82C374.77 306.11 375.14 304.39 375.47 302.66C375.8 300.93 376.09 299.19 376.35 297.45C376.6 295.71 376.82 293.97 377 292.22C377.41 288.16 377.62 284.04 377.62 279.87C377.62 278.48 377.59 277.1 377.54 275.72L377.54 275.72Z" />
		<path id="Layer" class="shp3" d="M377.51 274.69C377.48 274 377.44 273.32 377.4 272.64C377.36 271.96 377.32 271.27 377.26 270.59C377.21 269.91 377.15 269.23 377.09 268.55C377.03 267.87 376.96 267.19 376.88 266.51C376.85 266.17 376.81 265.84 376.77 265.51C376.68 264.75 376.58 264 376.48 263.25C376.38 262.5 376.27 261.75 376.15 261.01C376.03 260.26 375.91 259.51 375.78 258.77C375.64 258.02 375.51 257.28 375.36 256.53C375.22 255.8 375.07 255.06 374.91 254.33C374.75 253.6 374.59 252.87 374.41 252.14C374.24 251.41 374.07 250.69 373.88 249.96C373.7 249.23 373.5 248.51 373.3 247.79C372.91 246.36 372.5 244.95 372.05 243.54C371.61 242.13 371.14 240.73 370.64 239.33C370.15 237.94 369.62 236.56 369.08 235.19C368.53 233.81 367.96 232.45 367.36 231.1C366.77 229.76 366.15 228.44 365.51 227.12C364.87 225.81 364.21 224.51 363.52 223.22C362.84 221.92 362.13 220.65 361.39 219.38C360.66 218.12 359.9 216.87 359.12 215.63C357.68 213.33 356.15 211.08 354.55 208.89C352.96 206.69 351.28 204.55 349.54 202.46C347.8 200.38 345.99 198.35 344.11 196.39C342.23 194.43 340.29 192.53 338.28 190.7L338.27 190.68L338.18 190.6C337.86 190.31 337.53 190.02 337.2 189.72C336.83 189.39 336.46 189.06 336.09 188.74C335.74 188.44 335.39 188.14 335.04 187.85C334.68 187.54 334.31 187.22 333.94 186.92C333.58 186.62 333.22 186.33 332.86 186.04C332.49 185.74 332.13 185.44 331.76 185.14C331.39 184.85 331.02 184.57 330.65 184.28C330.28 183.99 329.9 183.71 329.53 183.42C329.15 183.14 328.77 182.86 328.4 182.58C328.3 182.51 328.21 182.44 328.11 182.37C328.02 182.3 327.92 182.24 327.83 182.17C327.73 182.1 327.64 182.03 327.54 181.96C327.45 181.89 327.35 181.82 327.26 181.75C326.88 181.48 326.49 181.21 326.1 180.94C325.91 180.8 325.72 180.67 325.53 180.53C325.33 180.4 325.14 180.27 324.95 180.13C324.75 180 324.56 179.87 324.37 179.74C324.17 179.61 323.98 179.48 323.78 179.35C323.68 179.28 323.58 179.22 323.48 179.15C323.38 179.08 323.29 179.02 323.19 178.95C323.09 178.89 322.99 178.82 322.89 178.76C322.79 178.69 322.69 178.63 322.59 178.56C322.39 178.44 322.19 178.31 322 178.18C321.8 178.05 321.6 177.93 321.4 177.8C321.2 177.67 321 177.55 320.8 177.42C320.6 177.3 320.4 177.18 320.2 177.05C320 176.93 319.8 176.8 319.6 176.68C319.39 176.56 319.19 176.43 318.99 176.31C318.79 176.19 318.58 176.07 318.38 175.95C318.18 175.83 317.97 175.71 317.77 175.59C317.37 175.36 316.97 175.12 316.57 174.89C316.15 174.65 315.72 174.42 315.3 174.18C314.9 173.96 314.49 173.74 314.09 173.52C313.66 173.28 313.22 173.06 312.78 172.83C312.38 172.62 311.98 172.41 311.58 172.2C311.13 171.97 310.67 171.75 310.21 171.52C309.82 171.33 309.43 171.13 309.03 170.94C308.54 170.71 308.05 170.48 307.56 170.25C307.19 170.08 306.82 169.91 306.45 169.74C305.83 169.46 305.21 169.19 304.58 168.92C304.34 168.82 304.09 168.7 303.84 168.6C302.98 168.23 302.1 167.88 301.23 167.53C300.89 167.4 300.55 167.27 300.21 167.14C299.65 166.93 299.1 166.71 298.54 166.51C298.16 166.37 297.78 166.24 297.4 166.1C297.27 166.05 297.14 166.01 297.01 165.96C296.88 165.91 296.75 165.87 296.62 165.82C296.49 165.78 296.36 165.73 296.23 165.69C296.1 165.64 295.97 165.6 295.84 165.55C295.43 165.41 295.03 165.28 294.62 165.15C294.11 164.98 293.61 164.82 293.1 164.66C292.68 164.52 292.26 164.4 291.84 164.27C291.34 164.12 290.84 163.97 290.33 163.82C289.91 163.7 289.48 163.58 289.05 163.46C288.81 163.4 288.58 163.33 288.35 163.27C288.11 163.21 287.88 163.14 287.64 163.08C287.41 163.02 287.17 162.96 286.94 162.9C286.7 162.84 286.47 162.78 286.23 162.72C285.87 162.63 285.51 162.54 285.14 162.46C284.78 162.37 284.42 162.28 284.05 162.2C283.69 162.12 283.32 162.03 282.96 161.95C282.59 161.87 282.23 161.8 281.86 161.72C281.62 161.67 281.38 161.62 281.14 161.57C280.9 161.52 280.67 161.47 280.43 161.43C280.19 161.38 279.95 161.33 279.71 161.29C279.47 161.24 279.23 161.2 278.99 161.15C278.87 161.13 278.76 161.11 278.65 161.09C278.54 161.07 278.43 161.05 278.32 161.03C278.21 161.01 278.1 160.99 277.98 160.97C277.87 160.95 277.76 160.93 277.65 160.91C277.41 160.87 277.17 160.83 276.92 160.79C276.68 160.75 276.44 160.71 276.2 160.67C275.96 160.63 275.71 160.59 275.47 160.55C275.23 160.52 274.99 160.48 274.74 160.44C274.21 160.36 273.67 160.29 273.14 160.22C272.7 160.16 272.26 160.1 271.82 160.04C271.27 159.98 270.72 159.92 270.18 159.86C269.74 159.81 269.3 159.76 268.86 159.72C268.3 159.66 267.74 159.61 267.18 159.57C266.75 159.53 266.32 159.49 265.9 159.46C265.3 159.41 264.71 159.38 264.12 159.35C263.71 159.32 263.31 159.29 262.91 159.27C262.74 159.27 262.58 159.26 262.41 159.25C262.24 159.24 262.08 159.24 261.91 159.23C261.75 159.23 261.58 159.22 261.42 159.21C261.25 159.21 261.08 159.2 260.92 159.2C260.58 159.19 260.24 159.17 259.9 159.16C258.9 159.14 257.9 159.12 256.89 159.12L256.85 159.12C255.85 159.12 254.85 159.14 253.84 159.16C253.5 159.17 253.16 159.19 252.82 159.2C252.16 159.22 251.5 159.24 250.83 159.27C250.43 159.29 250.03 159.32 249.62 159.35C249.03 159.38 248.44 159.41 247.85 159.46C247.42 159.49 246.99 159.53 246.56 159.57C246 159.61 245.44 159.66 244.88 159.72C244.44 159.76 244 159.81 243.56 159.86C243.02 159.92 242.47 159.98 241.92 160.04C241.48 160.1 241.04 160.16 240.6 160.22C240.36 160.25 240.11 160.28 239.87 160.32C239.62 160.35 239.38 160.39 239.13 160.42C238.89 160.46 238.64 160.5 238.4 160.53C238.15 160.57 237.91 160.61 237.66 160.65C237.42 160.69 237.18 160.73 236.93 160.77C236.69 160.81 236.45 160.85 236.21 160.89C235.97 160.93 235.72 160.97 235.48 161.02C235.24 161.06 235 161.11 234.76 161.15C234.52 161.2 234.28 161.24 234.04 161.29C233.8 161.33 233.56 161.38 233.32 161.43C233.08 161.48 232.84 161.52 232.6 161.57C232.36 161.62 232.12 161.67 231.88 161.72C231.64 161.77 231.4 161.82 231.17 161.87C230.93 161.92 230.69 161.98 230.45 162.03C230.21 162.08 229.98 162.14 229.74 162.19C229.5 162.24 229.26 162.3 229.03 162.35C228.79 162.41 228.56 162.47 228.32 162.52C228.08 162.58 227.85 162.64 227.61 162.7C227.38 162.76 227.14 162.82 226.91 162.87C226.67 162.93 226.44 162.99 226.2 163.06C225.7 163.19 225.2 163.33 224.69 163.46C224.26 163.58 223.83 163.7 223.41 163.82C222.9 163.97 222.4 164.12 221.9 164.27C221.48 164.4 221.06 164.52 220.64 164.66C220.13 164.81 219.63 164.98 219.12 165.15C218.71 165.28 218.31 165.41 217.9 165.55C217.38 165.73 216.86 165.91 216.34 166.1C215.96 166.24 215.57 166.37 215.19 166.51C214.64 166.71 214.08 166.93 213.53 167.14C213.19 167.27 212.85 167.4 212.51 167.53C211.63 167.88 210.76 168.23 209.9 168.6C209.65 168.7 209.4 168.81 209.16 168.92C208.53 169.19 207.9 169.46 207.28 169.74C206.91 169.91 206.55 170.08 206.18 170.25C205.69 170.48 205.19 170.71 204.71 170.94C204.31 171.13 203.92 171.33 203.52 171.52C203.07 171.75 202.61 171.97 202.16 172.2C201.76 172.41 201.36 172.62 200.95 172.83C200.52 173.06 200.08 173.28 199.65 173.52C199.25 173.74 198.84 173.96 198.44 174.18C198.02 174.42 197.59 174.65 197.17 174.89C196.77 175.12 196.37 175.36 195.97 175.59C195.77 175.71 195.56 175.83 195.36 175.95C195.16 176.07 194.95 176.19 194.75 176.31C194.55 176.43 194.34 176.56 194.14 176.68C193.94 176.8 193.74 176.93 193.54 177.05C193.34 177.18 193.14 177.3 192.94 177.42C192.74 177.55 192.54 177.67 192.34 177.8C192.14 177.93 191.94 178.05 191.74 178.18C191.54 178.31 191.35 178.44 191.15 178.56C190.95 178.69 190.75 178.82 190.56 178.95C190.36 179.08 190.16 179.21 189.97 179.34C189.77 179.47 189.57 179.61 189.38 179.74C189.18 179.87 188.99 180 188.79 180.13C188.6 180.27 188.41 180.4 188.21 180.53C188.02 180.67 187.83 180.8 187.63 180.94C187.44 181.07 187.25 181.21 187.06 181.34C186.86 181.48 186.67 181.62 186.48 181.75C186.39 181.81 186.31 181.88 186.23 181.94C176.85 203.41 171.65 227.12 171.65 252.05C171.65 314.59 204.37 369.48 253.62 400.56C254.7 400.59 255.78 400.63 256.87 400.63L256.87 400.63C312.1 400.63 358.67 363.55 373.04 312.93C373.52 311.24 373.96 309.54 374.37 307.82C374.78 306.11 375.14 304.39 375.47 302.66C375.8 300.93 376.1 299.2 376.35 297.46C376.6 295.72 376.82 293.97 377 292.22C377.41 288.16 377.62 284.04 377.62 279.87C377.62 278.48 377.59 277.1 377.54 275.72C377.53 275.37 377.52 275.03 377.51 274.69Z" />
		<g id="Layer">
			<path id="Layer" class="shp1" d="M256.87 90.73C255.74 90.73 254.62 90.5 253.58 90.07C252.53 89.64 251.58 89.01 250.79 88.21C249.99 87.41 249.35 86.46 248.92 85.41C248.49 84.37 248.26 83.25 248.26 82.12L248.26 32.47C248.3 30.22 249.22 28.06 250.83 26.47C252.44 24.89 254.61 24 256.87 24C259.13 24 261.3 24.89 262.91 26.47C264.52 28.06 265.44 30.22 265.47 32.47L265.47 82.12C265.47 83.25 265.25 84.37 264.82 85.41C264.39 86.46 263.75 87.41 262.95 88.21C262.16 89.01 261.21 89.64 260.16 90.07C259.12 90.5 258 90.73 256.87 90.73L256.87 90.73ZM256.87 535.87C255.74 535.87 254.62 535.65 253.58 535.21C252.53 534.78 251.58 534.15 250.79 533.35C249.99 532.55 249.35 531.6 248.92 530.56C248.49 529.51 248.26 528.39 248.26 527.26L248.26 477.62C248.3 475.36 249.22 473.2 250.83 471.62C252.44 470.03 254.61 469.14 256.87 469.14C259.13 469.14 261.3 470.03 262.91 471.62C264.52 473.2 265.44 475.36 265.47 477.62L265.47 527.26C265.47 528.39 265.25 529.51 264.82 530.56C264.39 531.6 263.75 532.55 262.95 533.35C262.16 534.15 261.21 534.78 260.16 535.21C259.12 535.65 258 535.87 256.87 535.87L256.87 535.87ZM158.01 117.22C157.25 117.22 156.5 117.12 155.78 116.93C155.05 116.74 154.35 116.45 153.7 116.07C153.05 115.69 152.45 115.23 151.91 114.7C151.38 114.17 150.92 113.57 150.54 112.92L125.72 69.92C124.61 67.95 124.32 65.61 124.92 63.43C125.52 61.24 126.96 59.38 128.92 58.25C130.88 57.12 133.21 56.81 135.4 57.38C137.59 57.95 139.47 59.37 140.62 61.32L165.45 104.31C166.01 105.29 166.38 106.37 166.53 107.49C166.67 108.61 166.6 109.75 166.31 110.84C166.02 111.93 165.51 112.96 164.82 113.85C164.13 114.75 163.28 115.5 162.3 116.07C161.97 116.25 161.64 116.42 161.29 116.56C160.95 116.71 160.59 116.83 160.23 116.93C159.87 117.02 159.5 117.1 159.13 117.15C158.76 117.2 158.38 117.22 158.01 117.22L158.01 117.22ZM380.58 502.73C379.82 502.73 379.07 502.63 378.35 502.44C377.62 502.24 376.92 501.95 376.27 501.58C375.62 501.2 375.02 500.74 374.48 500.21C373.95 499.68 373.49 499.08 373.12 498.42L348.29 455.43C345.92 451.31 347.33 446.05 351.44 443.67C355.56 441.3 360.82 442.7 363.2 446.82L388.02 489.82C390.4 493.93 388.99 499.2 384.87 501.57C384.55 501.76 384.21 501.93 383.86 502.07C383.52 502.22 383.16 502.34 382.8 502.43C382.44 502.53 382.07 502.6 381.7 502.65C381.33 502.7 380.95 502.73 380.58 502.73L380.58 502.73ZM85.61 189.6C85.23 189.6 84.86 189.58 84.48 189.53C84.11 189.48 83.74 189.41 83.38 189.31C83.02 189.21 82.67 189.09 82.32 188.95C81.97 188.8 81.64 188.64 81.31 188.45L38.32 163.63C37.34 163.06 36.48 162.31 35.79 161.41C35.11 160.52 34.6 159.49 34.31 158.4C34.02 157.31 33.94 156.17 34.09 155.05C34.24 153.93 34.6 152.85 35.17 151.87C37.54 147.76 42.81 146.34 46.92 148.72L89.92 173.54C94.03 175.92 95.44 181.18 93.07 185.3C92.69 185.95 92.23 186.55 91.7 187.08C91.16 187.61 90.57 188.08 89.91 188.45C89.26 188.83 88.56 189.12 87.84 189.31C87.11 189.5 86.36 189.6 85.61 189.6ZM471.11 412.17C470.74 412.17 470.36 412.15 469.99 412.1C469.62 412.05 469.25 411.98 468.89 411.88C468.53 411.78 468.17 411.66 467.83 411.52C467.48 411.37 467.14 411.21 466.82 411.02L423.82 386.2C419.71 383.82 418.29 378.56 420.67 374.44C423.05 370.33 428.31 368.92 432.43 371.29L475.42 396.11C479.54 398.49 480.95 403.75 478.58 407.87C478.2 408.52 477.74 409.12 477.21 409.65C476.67 410.19 476.07 410.65 475.42 411.02C474.77 411.4 474.07 411.69 473.34 411.88C472.62 412.08 471.87 412.17 471.11 412.17ZM59.12 288.47L9.47 288.47C7.22 288.44 5.06 287.52 3.47 285.91C1.89 284.3 1 282.13 1 279.87C1 277.61 1.89 275.44 3.47 273.83C5.06 272.22 7.22 271.3 9.47 271.26L59.12 271.26C61.38 271.3 63.54 272.22 65.12 273.83C66.71 275.44 67.6 277.61 67.6 279.87C67.6 282.13 66.71 284.3 65.12 285.91C63.54 287.52 61.38 288.44 59.12 288.47L59.12 288.47ZM504.26 288.47L454.62 288.47C452.36 288.44 450.2 287.52 448.62 285.91C447.03 284.3 446.14 282.13 446.14 279.87C446.14 277.61 447.03 275.44 448.62 273.83C450.2 272.22 452.36 271.3 454.62 271.26L504.26 271.26C506.52 271.3 508.68 272.22 510.27 273.83C511.85 275.44 512.74 277.61 512.74 279.87C512.74 282.13 511.85 284.3 510.27 285.91C508.68 287.52 506.52 288.44 504.26 288.47L504.26 288.47ZM42.63 412.17C40.73 412.18 38.89 411.55 37.38 410.4C35.88 409.25 34.8 407.63 34.31 405.8C33.81 403.97 33.94 402.03 34.67 400.28C35.39 398.53 36.67 397.06 38.31 396.11L81.31 371.29C82.29 370.73 83.37 370.36 84.49 370.21C85.61 370.06 86.75 370.14 87.84 370.43C88.93 370.72 89.95 371.23 90.85 371.92C91.75 372.6 92.5 373.46 93.06 374.44C95.44 378.56 94.03 383.82 89.92 386.2L46.92 411.02C46.6 411.21 46.26 411.37 45.91 411.52C45.57 411.66 45.21 411.78 44.85 411.88C44.49 411.98 44.12 412.05 43.75 412.1C43.38 412.15 43 412.17 42.63 412.17L42.63 412.17ZM428.13 189.6C427.38 189.6 426.63 189.5 425.9 189.31C425.18 189.12 424.48 188.83 423.82 188.45C423.17 188.07 422.57 187.61 422.04 187.08C421.51 186.55 421.05 185.95 420.67 185.3C420.11 184.32 419.74 183.24 419.59 182.12C419.44 181 419.52 179.86 419.81 178.77C420.1 177.68 420.61 176.65 421.3 175.76C421.98 174.86 422.84 174.11 423.82 173.54L466.82 148.72C468.79 147.58 471.14 147.27 473.35 147.86C475.55 148.45 477.43 149.89 478.57 151.87C479.71 153.85 480.02 156.19 479.43 158.4C478.84 160.6 477.4 162.48 475.42 163.62L432.43 188.45C432.1 188.63 431.77 188.8 431.42 188.94C431.07 189.09 430.72 189.21 430.36 189.31C429.99 189.41 429.63 189.48 429.25 189.53C428.88 189.58 428.51 189.6 428.13 189.6ZM133.16 502.73C131.65 502.73 130.17 502.33 128.86 501.57C127.56 500.82 126.47 499.73 125.72 498.42C124.96 497.11 124.57 495.63 124.57 494.12C124.57 492.61 124.97 491.13 125.72 489.82L150.54 446.82C152.92 442.71 158.18 441.3 162.3 443.67C163.28 444.24 164.13 444.99 164.82 445.88C165.51 446.78 166.02 447.8 166.31 448.9C166.6 449.99 166.68 451.13 166.53 452.25C166.38 453.37 166.01 454.45 165.45 455.43L140.63 498.42C140.25 499.08 139.79 499.68 139.26 500.21C138.72 500.74 138.12 501.2 137.47 501.58C136.82 501.95 136.12 502.24 135.39 502.44C134.67 502.63 133.92 502.73 133.16 502.73ZM355.73 117.22C355.36 117.22 354.98 117.2 354.61 117.15C354.24 117.1 353.87 117.03 353.51 116.93C353.15 116.83 352.79 116.71 352.45 116.57C352.1 116.42 351.76 116.26 351.44 116.07C347.32 113.69 345.91 108.43 348.29 104.31L373.11 61.32C373.68 60.34 374.43 59.48 375.33 58.79C376.22 58.1 377.25 57.6 378.34 57.31C379.43 57.02 380.57 56.94 381.69 57.09C382.81 57.24 383.89 57.6 384.87 58.17C388.98 60.54 390.4 65.81 388.02 69.92L363.2 112.92C362.82 113.57 362.36 114.17 361.83 114.7C361.29 115.23 360.69 115.69 360.04 116.07C359.39 116.45 358.69 116.74 357.96 116.93C357.24 117.12 356.49 117.22 355.73 117.22L355.73 117.22Z" />
		</g>
	</g>
	<g id="dove">
		<g id="Layer">
			<path id="Layer" fill-rule="evenodd" class="shp4" d="M623.98 450.62C623.42 453.88 622.44 456.94 621.23 459.87C618.06 460.05 614.85 459.96 611.59 459.4C588.2 455.42 572.47 433.23 576.45 409.84C577.01 406.58 577.99 403.51 579.21 400.59C582.37 400.41 585.59 400.5 588.85 401.05C612.24 405.04 627.97 427.23 623.98 450.62ZM682.37 416.99C685.63 417.54 688.69 418.52 691.62 419.74C691.8 422.91 691.71 426.12 691.15 429.38C687.17 452.77 664.98 468.5 641.59 464.51C638.33 463.96 635.27 462.98 632.34 461.76C632.16 458.6 632.25 455.38 632.8 452.12C636.79 428.73 658.98 413 682.37 416.99ZM616.82 330.25C634.62 336.19 644.23 355.42 638.3 373.21C637.47 375.69 636.34 377.97 635.04 380.11C632.54 379.86 630.04 379.41 627.56 378.58C609.77 372.65 600.15 353.42 606.08 335.62C606.91 333.14 608.04 330.87 609.35 328.73C611.84 328.97 614.34 329.43 616.82 330.25ZM694.87 357.24C694.62 359.73 694.17 362.23 693.34 364.71C687.41 382.51 668.18 392.12 650.38 386.19C647.9 385.36 645.63 384.23 643.49 382.92C643.73 380.43 644.19 377.93 645.01 375.45C650.95 357.66 670.18 348.04 687.97 353.97C690.45 354.8 692.73 355.93 694.87 357.24Z" />
		</g>
		<path id="Layer" class="shp5" d="M579.26 493.04L579.32 531.14L617.63 518.18C622.55 516.52 622.68 509.61 617.83 507.75L579.26 493.04Z" />
		<path id="Layer" class="shp6" d="M465.89 495.34C442.05 433.92 391.8 358.14 295.95 326.79C290.7 325.07 285.21 328.55 284.25 333.98C280.99 352.47 278 393.54 304.04 433.44L443.52 524.43L465.89 495.34Z" />
		<path id="Layer" class="shp7" d="M522.92 450.62C503.76 451.19 486.79 460.37 475.7 474.41C466.19 486.44 455.34 497.33 442.62 505.46C392.8 537.3 279.87 551.2 279.87 551.2C253.82 554.65 225.59 557.02 195.54 557.75C186.22 557.98 180.2 567.75 184.05 576.24L214.52 643.28C217.72 650.3 226.25 653.07 232.94 649.23C237.65 646.52 242.38 643.83 247.12 641.17C251.85 638.5 256.6 635.85 261.36 633.22C266.12 630.58 270.88 627.97 275.66 625.38C280.44 622.78 285.23 620.21 290.03 617.65C314.35 651.93 354.28 674.35 399.51 674.35C457.77 674.35 507.24 637.19 525.8 585.32C527.86 579.57 532.95 575.6 538.9 574.23C567.42 567.68 588.52 541.71 587.42 510.95C586.21 477.11 556.77 449.61 522.92 450.62L522.92 450.62Z" />
		<path id="Layer" class="shp8" d="M480.06 557.99C480.06 557.99 393.51 402.19 220.39 414.05C215.53 414.38 212.19 419.09 213.31 423.83C218.03 443.93 234.19 492.26 283.16 513.24L264.51 525.68C260.16 528.57 259.79 534.77 263.7 538.23C287.7 559.47 368.41 617.54 480.06 557.99Z" />
		<path id="Layer" class="shp5" d="M542.72 513.24C541.54 513.24 540.38 513.01 539.29 512.56C538.2 512.11 537.22 511.45 536.39 510.62C535.56 509.79 534.9 508.81 534.45 507.72C534 506.63 533.77 505.47 533.77 504.29L533.77 495.34C533.77 494.17 534 493 534.45 491.92C534.9 490.83 535.56 489.85 536.39 489.01C537.22 488.18 538.2 487.52 539.29 487.07C540.38 486.62 541.54 486.39 542.72 486.39C543.89 486.39 545.06 486.62 546.14 487.07C547.23 487.52 548.21 488.18 549.05 489.01C549.88 489.85 550.54 490.83 550.99 491.92C551.43 493 551.67 494.17 551.67 495.34L551.67 504.29C551.67 505.47 551.43 506.63 550.99 507.72C550.54 508.81 549.88 509.79 549.05 510.62C548.21 511.45 547.23 512.11 546.14 512.56C545.06 513.01 543.89 513.24 542.72 513.24L542.72 513.24Z" />
		<path id="Layer" class="shp9" d="M623.27 549.04C622.09 549.04 620.93 548.81 619.84 548.36C618.76 547.91 617.77 547.25 616.94 546.42C616.11 545.59 615.45 544.61 615 543.52C614.55 542.43 614.32 541.27 614.32 540.09C614.32 427.71 634.13 354.57 650.75 313.01C652.59 308.42 657.83 306.2 662.39 308.03C666.98 309.87 669.21 315.07 667.38 319.66C651.34 359.76 632.22 430.56 632.22 540.09C632.22 541.27 631.99 542.43 631.54 543.52C631.09 544.6 630.43 545.59 629.6 546.42C628.77 547.25 627.78 547.91 626.69 548.36C625.61 548.81 624.44 549.04 623.27 549.04L623.27 549.04Z" />
		<path id="Layer" class="shp8" d="M195.92 602.34L214.52 643.27C217.72 650.3 226.25 653.07 232.94 649.22C237.65 646.52 242.38 643.83 247.12 641.16C251.85 638.49 256.6 635.84 261.36 633.21C266.12 630.58 270.88 627.97 275.66 625.37C280.44 622.78 285.23 620.2 290.02 617.65L279.71 602.49C278.24 600.33 276.46 598.39 274.43 596.74C272.39 595.09 270.13 593.75 267.71 592.76C265.29 591.76 262.74 591.13 260.13 590.87C257.53 590.62 254.9 590.74 252.33 591.25L195.92 602.34Z" />
		<path id="Layer" class="shp6" d="M402.39 529.65C369.61 531.56 311.47 527.1 283.16 513.24L264.51 525.68C260.21 528.54 259.72 534.7 263.58 538.12C274.95 548.2 299.28 566.72 333.71 576.9C367.38 567.84 392.15 551.6 406.48 540.16C410.99 536.55 408.15 529.31 402.39 529.65Z" />
	</g>
</svg>